<svg xmlns="http://www.w3.org/2000/svg" viewBox="0 0 800 600" fill="none">
  <!-- Network Structure Background Pattern -->
  <!-- Subtle interconnected nodes representing AI/data network -->

  <defs>
    <linearGradient id="networkGrad" x1="0%" y1="0%" x2="100%" y2="100%">
      <stop offset="0%" stop-color="#002E5D" stop-opacity="0.6"/>
      <stop offset="100%" stop-color="#004494" stop-opacity="0.3"/>
    </linearGradient>
  </defs>

  <!-- Connection Lines -->
  <g stroke="url(#networkGrad)" stroke-width="1" opacity="0.5">
    <!-- Primary connections -->
    <line x1="100" y1="150" x2="200" y2="100"/>
    <line x1="200" y1="100" x2="350" y2="130"/>
    <line x1="350" y1="130" x2="450" y2="80"/>
    <line x1="450" y1="80" x2="600" y2="120"/>
    <line x1="600" y1="120" x2="700" y2="90"/>

    <line x1="100" y1="150" x2="180" y2="250"/>
    <line x1="200" y1="100" x2="280" y2="200"/>
    <line x1="350" y1="130" x2="380" y2="250"/>
    <line x1="450" y1="80" x2="500" y2="180"/>
    <line x1="600" y1="120" x2="620" y2="220"/>

    <line x1="180" y1="250" x2="280" y2="200"/>
    <line x1="280" y1="200" x2="380" y2="250"/>
    <line x1="380" y1="250" x2="500" y2="180"/>
    <line x1="500" y1="180" x2="620" y2="220"/>

    <!-- Secondary layer -->
    <line x1="50" y1="300" x2="180" y2="250"/>
    <line x1="180" y1="250" x2="250" y2="350"/>
    <line x1="280" y1="200" x2="320" y2="320"/>
    <line x1="380" y1="250" x2="420" y2="380"/>
    <line x1="500" y1="180" x2="550" y2="300"/>
    <line x1="620" y1="220" x2="680" y2="340"/>
    <line x1="700" y1="90" x2="750" y2="200"/>

    <line x1="250" y1="350" x2="320" y2="320"/>
    <line x1="320" y1="320" x2="420" y2="380"/>
    <line x1="420" y1="380" x2="550" y2="300"/>
    <line x1="550" y1="300" x2="680" y2="340"/>
    <line x1="680" y1="340" x2="750" y2="200"/>

    <!-- Third layer -->
    <line x1="50" y1="300" x2="120" y2="420"/>
    <line x1="250" y1="350" x2="200" y2="480"/>
    <line x1="320" y1="320" x2="350" y2="450"/>
    <line x1="420" y1="380" x2="480" y2="500"/>
    <line x1="550" y1="300" x2="580" y2="430"/>
    <line x1="680" y1="340" x2="720" y2="470"/>

    <line x1="120" y1="420" x2="200" y2="480"/>
    <line x1="200" y1="480" x2="350" y2="450"/>
    <line x1="350" y1="450" x2="480" y2="500"/>
    <line x1="480" y1="500" x2="580" y2="430"/>
    <line x1="580" y1="430" x2="720" y2="470"/>

    <!-- Cross connections -->
    <line x1="100" y1="150" x2="280" y2="200"/>
    <line x1="350" y1="130" x2="500" y2="180"/>
    <line x1="180" y1="250" x2="380" y2="250"/>
    <line x1="250" y1="350" x2="420" y2="380"/>
    <line x1="320" y1="320" x2="550" y2="300"/>
    <line x1="200" y1="480" x2="480" y2="500"/>
  </g>

  <!-- Network Nodes -->
  <g fill="url(#networkGrad)">
    <!-- Primary nodes -->
    <circle cx="100" cy="150" r="6" opacity="0.7"/>
    <circle cx="350" cy="130" r="7" opacity="0.8"/>
    <circle cx="600" cy="120" r="6" opacity="0.7"/>
    <circle cx="380" cy="250" r="8" opacity="0.9"/>
    <circle cx="320" cy="320" r="6" opacity="0.7"/>
    <circle cx="480" cy="500" r="7" opacity="0.8"/>

    <!-- Secondary nodes -->
    <circle cx="200" cy="100" r="4" opacity="0.6"/>
    <circle cx="450" cy="80" r="4" opacity="0.6"/>
    <circle cx="700" cy="90" r="4" opacity="0.6"/>
    <circle cx="180" cy="250" r="5" opacity="0.7"/>
    <circle cx="280" cy="200" r="5" opacity="0.7"/>
    <circle cx="500" cy="180" r="5" opacity="0.7"/>
    <circle cx="620" cy="220" r="4" opacity="0.6"/>
    <circle cx="250" cy="350" r="5" opacity="0.7"/>
    <circle cx="420" cy="380" r="5" opacity="0.7"/>
    <circle cx="550" cy="300" r="4" opacity="0.6"/>
    <circle cx="680" cy="340" r="5" opacity="0.7"/>

    <!-- Tertiary nodes -->
    <circle cx="50" cy="300" r="3" opacity="0.5"/>
    <circle cx="750" cy="200" r="3" opacity="0.5"/>
    <circle cx="120" cy="420" r="4" opacity="0.6"/>
    <circle cx="200" cy="480" r="4" opacity="0.6"/>
    <circle cx="350" cy="450" r="3" opacity="0.5"/>
    <circle cx="580" cy="430" r="4" opacity="0.6"/>
    <circle cx="720" cy="470" r="3" opacity="0.5"/>
  </g>
</svg>
